<svg xmlns="http://www.w3.org/2000/svg" height="94" width="376"><linearGradient y2="94" x2="0" gradientUnits="userSpaceOnUse" id="a"><stop offset="0" stop-color="#fff"/><stop offset="1" stop-color="#d9d9d9"/></linearGradient><rect ry="15" rx="15" height="92" width="374" y="1" x="1" stroke-width="2" stroke="#B3B3B3" fill="url(#a)"/><path d="M99 48a32 32 0 0 1-32 32 32 32 0 0 1-32-32 32 32 0 0 1 32-32 32 32 0 0 1 32 32zm44.168 13.351q-2.34 0-4.797-.195t-4.446-.624l6.24-26.13q2.223-.429 4.641-.585 2.457-.156 4.485-.156 2.34 0 4.017.507 1.716.468 2.769 1.287 1.092.819 1.599 1.95.546 1.092.546 2.34 0 .858-.195 1.794-.156.936-.702 1.872-.507.897-1.443 1.716-.897.819-2.379 1.482 1.755.78 2.574 2.145.819 1.326.819 2.964 0 1.872-.741 3.627-.741 1.716-2.379 3.081-1.638 1.326-4.251 2.145-2.613.78-6.357.78zm-.546-12.168l-1.677 7.02q.624.117 1.56.195.975.039 1.794.039 1.17 0 2.301-.156 1.17-.195 2.067-.663.936-.468 1.521-1.287.585-.819.585-2.106 0-.546-.234-1.092-.195-.546-.663-.975-.468-.429-1.248-.702-.741-.273-1.794-.273h-4.212zm1.131-4.563h3.822q2.34 0 3.471-1.014 1.17-1.014 1.17-2.418 0-.741-.351-1.248-.312-.546-.858-.858-.546-.312-1.248-.429-.702-.156-1.443-.156-.819 0-1.755.078-.936.039-1.404.117l-1.404 5.928zM165.172 61H159.4l4.875-20.514h5.81L165.173 61zm2.808-23.01q-1.21 0-2.184-.702-.975-.741-.975-2.223 0-.819.312-1.521.35-.741.897-1.248.546-.546 1.248-.858.74-.312 1.56-.312 1.209 0 2.184.741.975.702.975 2.184 0 .819-.351 1.56-.312.702-.858 1.248-.546.507-1.287.819-.702.312-1.521.312zm8.042-2.613l6.045-.936-1.482 6.045h6.474l-1.17 4.758h-6.435l-1.716 7.176q-.234.897-.312 1.677-.04.78.195 1.365.273.546.897.858.624.312 1.716.312.936 0 1.794-.156.897-.195 1.794-.507l.429 4.446q-1.17.429-2.535.741-1.365.312-3.237.312-2.691 0-4.173-.78-1.482-.819-2.106-2.184-.624-1.404-.546-3.198.078-1.794.546-3.783l3.822-16.146zM187.23 52.81q0-2.652.858-4.992t2.457-4.095q1.6-1.755 3.861-2.769 2.301-1.014 5.11-1.014 1.754 0 3.12.351 1.403.312 2.534.858l-1.989 4.524q-.78-.312-1.638-.546-.819-.273-2.028-.273-2.925 0-4.602 1.989-1.677 1.95-1.677 5.343 0 1.989.858 3.237.858 1.209 3.16 1.209 1.13 0 2.183-.234t1.872-.585l.43 4.641q-1.093.429-2.419.741-1.287.351-3.159.351-2.418 0-4.095-.702-1.677-.702-2.769-1.872-1.092-1.209-1.599-2.808-.468-1.599-.468-3.354zm25.86 8.736q-2.067 0-3.588-.624-1.52-.624-2.535-1.755-.975-1.131-1.482-2.652-.507-1.56-.507-3.432 0-2.34.741-4.68.78-2.34 2.262-4.212 1.482-1.872 3.627-3.042 2.145-1.209 4.914-1.209 2.028 0 3.55.624 1.56.624 2.534 1.755 1.014 1.131 1.521 2.691.507 1.521.507 3.393 0 2.34-.74 4.68-.742 2.34-2.185 4.212-1.443 1.872-3.627 3.081-2.145 1.17-4.992 1.17zm2.886-16.692q-1.287 0-2.262.741-.975.741-1.638 1.872-.663 1.131-1.014 2.496-.312 1.326-.312 2.535 0 1.989.624 3.081.624 1.053 2.262 1.053 1.287 0 2.262-.741.975-.741 1.638-1.872.663-1.131.975-2.457.351-1.365.351-2.574 0-1.989-.624-3.042-.624-1.092-2.262-1.092zM231.975 61h-5.772l4.875-20.514h5.81L231.976 61zm2.808-23.01q-1.21 0-2.184-.702-.975-.741-.975-2.223 0-.819.312-1.521.35-.741.897-1.248.546-.546 1.248-.858.74-.312 1.56-.312 1.209 0 2.184.741.975.702.975 2.184 0 .819-.351 1.56-.312.702-.858 1.248-.546.507-1.287.819-.702.312-1.521.312zm7.184 3.432q.663-.195 1.443-.429.819-.273 1.794-.468 1.014-.234 2.223-.351 1.248-.156 2.808-.156 4.602 0 6.318 2.652 1.716 2.652.585 7.254L254.486 61h-5.811l2.574-10.842q.234-1.014.35-1.95.157-.975 0-1.677-.155-.741-.74-1.17-.546-.468-1.716-.468-1.131 0-2.301.234L243.059 61h-5.811l4.719-19.578z" fill="#fff"/><path d="M99 47a32 32 0 0 1-32 32 32 32 0 0 1-32-32 32 32 0 0 1 32-32 32 32 0 0 1 32 32z" fill="#f7931a"/><path d="M81.103 42.444c.637-4.258-2.605-6.547-7.038-8.074l1.438-5.768-3.511-.875-1.4 5.616c-.923-.23-1.871-.447-2.813-.662l1.41-5.653-3.509-.875-1.439 5.766c-.764-.174-1.514-.346-2.242-.527l.004-.018-4.842-1.209-.934 3.75s2.605.597 2.55.634c1.422.355 1.679 1.296 1.636 2.042l-1.638 6.571c.098.025.225.061.365.117l-.371-.092-2.296 9.205c-.174.432-.615 1.08-1.609.834.035.051-2.552-.637-2.552-.637l-1.743 4.019 4.569 1.139c.85.213 1.683.436 2.503.646l-1.453 5.834 3.507.875 1.439-5.772c.958.26 1.888.5 2.798.726l-1.434 5.745 3.511.875 1.453-5.823c5.987 1.133 10.489.676 12.384-4.739 1.527-4.36-.076-6.875-3.226-8.515 2.294-.529 4.022-2.038 4.483-5.155zm-8.022 11.249c-1.085 4.36-8.426 2.003-10.806 1.412l1.928-7.729c2.38.594 10.012 1.77 8.878 6.317zm1.086-11.312c-.99 3.966-7.1 1.951-9.082 1.457l1.748-7.01c1.982.494 8.365 1.416 7.334 5.553z" fill="#fff"/><path d="M143.168 60.351q-2.34 0-4.797-.195t-4.446-.624l6.24-26.13q2.223-.429 4.641-.585 2.457-.156 4.485-.156 2.34 0 4.017.507 1.716.468 2.769 1.287 1.092.819 1.599 1.95.546 1.092.546 2.34 0 .858-.195 1.794-.156.936-.702 1.872-.507.897-1.443 1.716-.897.819-2.379 1.482 1.755.78 2.574 2.145.819 1.326.819 2.964 0 1.872-.741 3.627-.741 1.716-2.379 3.081-1.638 1.326-4.251 2.145-2.613.78-6.357.78zm-.546-12.168l-1.677 7.02q.624.117 1.56.195.975.039 1.794.039 1.17 0 2.301-.156 1.17-.195 2.067-.663.936-.468 1.521-1.287.585-.819.585-2.106 0-.546-.234-1.092-.195-.546-.663-.975-.468-.429-1.248-.702-.741-.273-1.794-.273h-4.212zm1.131-4.563h3.822q2.34 0 3.471-1.014 1.17-1.014 1.17-2.418 0-.741-.351-1.248-.312-.546-.858-.858-.546-.312-1.248-.429-.702-.156-1.443-.156-.819 0-1.755.078-.936.039-1.404.117l-1.404 5.928zM165.172 60H159.4l4.875-20.514h5.81L165.173 60zm2.808-23.01q-1.21 0-2.184-.702-.975-.741-.975-2.223 0-.819.312-1.521.35-.741.897-1.248.546-.546 1.248-.858.74-.312 1.56-.312 1.209 0 2.184.741.975.702.975 2.184 0 .819-.351 1.56-.312.702-.858 1.248-.546.507-1.287.819-.702.312-1.521.312zm8.042-2.613l6.045-.936-1.482 6.045h6.474l-1.17 4.758h-6.435l-1.716 7.176q-.234.897-.312 1.677-.04.78.195 1.365.273.546.897.858.624.312 1.716.312.936 0 1.794-.156.897-.195 1.794-.507l.429 4.446q-1.17.429-2.535.741-1.365.312-3.237.312-2.691 0-4.173-.78-1.482-.819-2.106-2.184-.624-1.404-.546-3.198.078-1.794.546-3.783l3.822-16.146zM187.23 51.81q0-2.652.858-4.992t2.457-4.095q1.6-1.755 3.861-2.769 2.301-1.014 5.11-1.014 1.754 0 3.12.351 1.403.312 2.534.858l-1.989 4.524q-.78-.312-1.638-.546-.819-.273-2.028-.273-2.925 0-4.602 1.989-1.677 1.95-1.677 5.343 0 1.989.858 3.237.858 1.209 3.16 1.209 1.13 0 2.183-.234t1.872-.585l.43 4.641q-1.093.429-2.419.741-1.287.351-3.159.351-2.418 0-4.095-.702-1.677-.702-2.769-1.872-1.092-1.209-1.599-2.808-.468-1.599-.468-3.354zm25.86 8.736q-2.067 0-3.588-.624-1.52-.624-2.535-1.755-.975-1.131-1.482-2.652-.507-1.56-.507-3.432 0-2.34.741-4.68.78-2.34 2.262-4.212 1.482-1.872 3.627-3.042 2.145-1.209 4.914-1.209 2.028 0 3.55.624 1.56.624 2.534 1.755 1.014 1.131 1.521 2.691.507 1.521.507 3.393 0 2.34-.74 4.68-.742 2.34-2.185 4.212-1.443 1.872-3.627 3.081-2.145 1.17-4.992 1.17zm2.886-16.692q-1.287 0-2.262.741-.975.741-1.638 1.872-.663 1.131-1.014 2.496-.312 1.326-.312 2.535 0 1.989.624 3.081.624 1.053 2.262 1.053 1.287 0 2.262-.741.975-.741 1.638-1.872.663-1.131.975-2.457.351-1.365.351-2.574 0-1.989-.624-3.042-.624-1.092-2.262-1.092zM231.975 60h-5.772l4.875-20.514h5.81L231.976 60zm2.808-23.01q-1.21 0-2.184-.702-.975-.741-.975-2.223 0-.819.312-1.521.35-.741.897-1.248.546-.546 1.248-.858.74-.312 1.56-.312 1.209 0 2.184.741.975.702.975 2.184 0 .819-.351 1.56-.312.702-.858 1.248-.546.507-1.287.819-.702.312-1.521.312zm7.184 3.432q.663-.195 1.443-.429.819-.273 1.794-.468 1.014-.234 2.223-.351 1.248-.156 2.808-.156 4.602 0 6.318 2.652 1.716 2.652.585 7.254L254.486 60h-5.811l2.574-10.842q.234-1.014.35-1.95.157-.975 0-1.677-.155-.741-.74-1.17-.546-.468-1.716-.468-1.131 0-2.301.234L243.059 60h-5.811l4.719-19.578z" fill="#4d4d4d"/></svg>